<svg width="848" height="102" viewBox="0 0 848 102" fill="none" xmlns="http://www.w3.org/2000/svg">
<g id="Element / Category Heading">
<mask id="path-1-inside-1_30788_66895" fill="white">
<path d="M0 0H848V102H0V0Z"/>
</mask>
<path d="M848 101H0V103H848V101Z" fill="white" fill-opacity="0.08" mask="url(#path-1-inside-1_30788_66895)"/>
<path id="Category" d="M0.352 32L8.416 8.16H15.008L23.072 32H17.664L16.064 27.136H7.328L5.728 32H0.352ZM8.704 22.816H14.688L11.04 11.552H12.384L8.704 22.816ZM25.1975 32V14.528H29.6775V18.72L29.3575 18.112C29.7415 16.64 30.3708 15.648 31.2455 15.136C32.1415 14.6027 33.1975 14.336 34.4135 14.336H35.4375V18.496H33.9335C32.7602 18.496 31.8108 18.8587 31.0855 19.584C30.3602 20.288 29.9975 21.2907 29.9975 22.592V32H25.1975ZM37.5413 32V14.528H42.0213V18.72L41.7013 18.112C42.0853 16.64 42.7146 15.648 43.5893 15.136C44.4853 14.6027 45.5413 14.336 46.7573 14.336H47.7813V18.496H46.2773C45.1039 18.496 44.1546 18.8587 43.4293 19.584C42.7039 20.288 42.3413 21.2907 42.3413 22.592V32H37.5413ZM58.557 32.384C56.829 32.384 55.2503 31.9893 53.821 31.2C52.413 30.4107 51.2823 29.3333 50.429 27.968C49.597 26.5813 49.181 25.0133 49.181 23.264C49.181 21.4933 49.597 19.9253 50.429 18.56C51.2823 17.1947 52.413 16.1173 53.821 15.328C55.2503 14.5387 56.829 14.144 58.557 14.144C60.285 14.144 61.853 14.5387 63.261 15.328C64.669 16.1173 65.789 17.1947 66.621 18.56C67.4743 19.9253 67.901 21.4933 67.901 23.264C67.901 25.0133 67.4743 26.5813 66.621 27.968C65.789 29.3333 64.669 30.4107 63.261 31.2C61.853 31.9893 60.285 32.384 58.557 32.384ZM58.557 28.064C59.4317 28.064 60.189 27.8613 60.829 27.456C61.4903 27.0507 62.0023 26.4853 62.365 25.76C62.749 25.0347 62.941 24.2027 62.941 23.264C62.941 22.3253 62.749 21.504 62.365 20.8C62.0023 20.0747 61.4903 19.5093 60.829 19.104C60.189 18.6773 59.4317 18.464 58.557 18.464C57.6823 18.464 56.9143 18.6773 56.253 19.104C55.5917 19.5093 55.069 20.0747 54.685 20.8C54.3223 21.504 54.141 22.3253 54.141 23.264C54.141 24.2027 54.3223 25.0347 54.685 25.76C55.069 26.4853 55.5917 27.0507 56.253 27.456C56.9143 27.8613 57.6823 28.064 58.557 28.064ZM75.0243 32L69.0083 14.528H73.9683L78.1923 27.136L76.4643 27.104L81.1683 14.528H85.3283L90.0003 27.104L88.2723 27.136L92.4963 14.528H97.4883L91.4403 32H87.2803L82.4163 18.496H84.0803L79.1843 32H75.0243Z" fill="white"/>
<g id="Element / Notification">
<path id="Dot" d="M755 30C752.791 30 751 28.2091 751 26C751 23.7909 752.791 22 755 22C757.209 22 759 23.7909 759 26C759 27.0609 758.579 28.0783 757.828 28.8284C757.078 29.5786 756.061 30 755 30Z" fill="#FCE803"/>
<path id="Notification" d="M767.792 31V22.06H769.22L774.02 28.384L773.252 28.564V22.06H775.112V31H773.672L768.956 24.628L769.652 24.448V31H767.792ZM777.898 31V22.06H783.91V23.68H779.758V25.708H783.67V27.328H779.758V29.38H783.91V31H777.898ZM787.845 31L785.505 22.06H787.521L789.285 29.548H788.745L790.605 22.06H792.525L794.385 29.548H793.845L795.609 22.06H797.625L795.285 31H793.125L791.253 23.8H791.877L790.005 31H787.845ZM803.108 31V22.06H804.968V31H803.108ZM812.001 31.144C811.361 31.144 810.765 31.028 810.213 30.796C809.669 30.564 809.193 30.24 808.785 29.824C808.377 29.408 808.057 28.92 807.825 28.36C807.601 27.8 807.489 27.188 807.489 26.524C807.489 25.86 807.601 25.248 807.825 24.688C808.049 24.12 808.365 23.632 808.773 23.224C809.181 22.808 809.657 22.488 810.201 22.264C810.753 22.032 811.353 21.916 812.001 21.916C812.649 21.916 813.229 22.024 813.741 22.24C814.261 22.456 814.701 22.744 815.061 23.104C815.421 23.464 815.677 23.864 815.829 24.304L814.185 25.096C814.033 24.664 813.765 24.308 813.381 24.028C813.005 23.74 812.545 23.596 812.001 23.596C811.473 23.596 811.009 23.72 810.609 23.968C810.209 24.216 809.897 24.56 809.673 25C809.457 25.432 809.349 25.94 809.349 26.524C809.349 27.108 809.457 27.62 809.673 28.06C809.897 28.5 810.209 28.844 810.609 29.092C811.009 29.34 811.473 29.464 812.001 29.464C812.545 29.464 813.005 29.324 813.381 29.044C813.765 28.756 814.033 28.396 814.185 27.964L815.829 28.756C815.677 29.196 815.421 29.596 815.061 29.956C814.701 30.316 814.261 30.604 813.741 30.82C813.229 31.036 812.649 31.144 812.001 31.144ZM822.698 31.144C822.026 31.144 821.402 31.028 820.826 30.796C820.25 30.564 819.746 30.24 819.314 29.824C818.89 29.4 818.558 28.908 818.318 28.348C818.078 27.788 817.958 27.18 817.958 26.524C817.958 25.868 818.074 25.26 818.306 24.7C818.546 24.14 818.878 23.652 819.302 23.236C819.734 22.82 820.238 22.496 820.814 22.264C821.39 22.032 822.018 21.916 822.698 21.916C823.378 21.916 824.006 22.032 824.582 22.264C825.158 22.496 825.658 22.82 826.082 23.236C826.514 23.652 826.846 24.14 827.078 24.7C827.318 25.26 827.438 25.868 827.438 26.524C827.438 27.18 827.318 27.788 827.078 28.348C826.838 28.908 826.502 29.4 826.07 29.824C825.646 30.24 825.146 30.564 824.57 30.796C823.994 31.028 823.37 31.144 822.698 31.144ZM822.698 29.464C823.106 29.464 823.482 29.392 823.826 29.248C824.178 29.104 824.486 28.904 824.75 28.648C825.014 28.384 825.218 28.072 825.362 27.712C825.506 27.352 825.578 26.956 825.578 26.524C825.578 26.092 825.506 25.7 825.362 25.348C825.218 24.988 825.014 24.676 824.75 24.412C824.486 24.148 824.178 23.948 823.826 23.812C823.482 23.668 823.106 23.596 822.698 23.596C822.29 23.596 821.91 23.668 821.558 23.812C821.214 23.948 820.91 24.148 820.646 24.412C820.382 24.676 820.178 24.988 820.034 25.348C819.89 25.7 819.818 26.092 819.818 26.524C819.818 26.956 819.89 27.352 820.034 27.712C820.178 28.072 820.382 28.384 820.646 28.648C820.91 28.904 821.214 29.104 821.558 29.248C821.91 29.392 822.29 29.464 822.698 29.464ZM829.958 31V22.06H831.386L836.186 28.384L835.418 28.564V22.06H837.278V31H835.838L831.122 24.628L831.818 24.448V31H829.958ZM843.316 31.144C842.756 31.144 842.228 31.044 841.732 30.844C841.244 30.636 840.82 30.344 840.46 29.968C840.108 29.592 839.844 29.148 839.668 28.636L841.192 27.952C841.416 28.44 841.724 28.824 842.116 29.104C842.516 29.384 842.956 29.524 843.436 29.524C843.692 29.524 843.912 29.484 844.096 29.404C844.28 29.324 844.424 29.216 844.528 29.08C844.632 28.936 844.684 28.768 844.684 28.576C844.684 28.368 844.62 28.192 844.492 28.048C844.364 27.896 844.164 27.776 843.892 27.688L842.14 27.112C841.428 26.88 840.892 26.552 840.532 26.128C840.172 25.696 839.992 25.18 839.992 24.58C839.992 24.052 840.12 23.588 840.376 23.188C840.64 22.788 841.004 22.476 841.468 22.252C841.94 22.028 842.48 21.916 843.088 21.916C843.624 21.916 844.12 22.008 844.576 22.192C845.032 22.376 845.424 22.636 845.752 22.972C846.088 23.308 846.34 23.712 846.508 24.184L844.996 24.868C844.828 24.452 844.576 24.128 844.24 23.896C843.904 23.656 843.52 23.536 843.088 23.536C842.84 23.536 842.62 23.576 842.428 23.656C842.236 23.736 842.088 23.852 841.984 24.004C841.88 24.148 841.828 24.316 841.828 24.508C841.828 24.716 841.896 24.9 842.032 25.06C842.168 25.212 842.372 25.332 842.644 25.42L844.36 25.972C845.08 26.204 845.616 26.528 845.968 26.944C846.328 27.36 846.508 27.868 846.508 28.468C846.508 28.988 846.372 29.452 846.1 29.86C845.828 30.26 845.452 30.576 844.972 30.808C844.5 31.032 843.948 31.144 843.316 31.144Z" fill="white" fill-opacity="0.48"/>
</g>
</g>
</svg>
